#!OML:ASF F:\VICON\USERDATA\INSTALL\rory3\rory3.ASF
:FULLY-SPECIFIED
:DEGREES
183
root 1.76169 17.3349 -2.40447 146.69 82.9827 -385.701
lowerback 2.56903 3.22012 5.60757
upperback -8.33564 5.51908 4.33522
thorax -10.2815 2.60324 0.869424
lowerneck -41.532 -13.994 -30.6957
upperneck -2.08336 -3.94429 20.3644
head 5.61243 0.730901 11.6071
rclavicle -8.82604e-014 4.6118e-014
rhumerus 77.0621 -30.8609 2.36886
rradius 29.2826
rwrist 22.0952
rhand -32.8459 97.7797
rfingers 7.12502
rthumb -6.06544 127.673
lclavicle -8.82604e-014 4.6118e-014
lhumerus 49.6553 29.6549 21.2506
lradius 46.6484
lwrist 19.4918
lhand -48.7581 120.025
lfingers 7.12502
lthumb -21.3967 -268.813
rfemur -49.952 -23.779 0.174189
rtibia 60.5204
rfoot -22.9296 -28.9899
rtoes 6.6045
lfemur -62.1345 22.8677 23.4073
ltibia 36.4037
lfoot -21.8511 24.4791
ltoes -5.61943
184
root 1.78524 17.3667 -2.54377 141.48 81.5437 -390.164
lowerback 3.93103 3.09505 4.64713
upperback -8.15383 5.33029 4.17065
thorax -10.9569 2.54757 1.16294
lowerneck -41.6953 -13.9508 -30.6569
upperneck -1.91529 -3.87451 20.3599
head 5.66584 0.757343 11.6171
rclavicle -1.27222e-014 6.04305e-014
rhumerus 77.9841 -31.4245 2.04903
rradius 28.397
rwrist 22.9956
rhand -31.8845 96.5632
rfingers 7.12502
rthumb -5.13721 126.481
lclavicle -1.27222e-014 6.04305e-014
lhumerus 49.6992 29.701 21.5625
lradius 45.436
lwrist 18.7337
lhand -47.6828 120.683
lfingers 7.12502
lthumb -20.3636 -268.269
rfemur -47.3361 -24.085 0.648142
rtibia 58.9021
rfoot -22.6918 -28.6344
rtoes 8.11842
lfemur -62.8534 23.1631 24.8284
ltibia 35.1101
lfoot -20.1086 26.5229
ltoes -9.89787
185
root 1.80216 17.4183 -2.68716 137.359 80.4382 -394.289
lowerback 4.47452 3.12705 3.75854
upperback -8.16409 5.30965 4.03523
thorax -11.3572 2.59292 1.47712
lowerneck -41.6827 -13.8314 -30.6287
upperneck -1.76032 -3.75643 20.2626
head 5.68536 0.786165 11.5912
rclavicle 9.38264e-014 4.45278e-014
rhumerus 78.334 -31.8767 2.62782
rradius 27.5407
rwrist 22.6394
rhand -31.8873 96.7692
rfingers 7.12502
rthumb -5.13994 126.687
lclavicle 9.38264e-014 4.45278e-014
lhumerus 50.2861 30.0002 22.3524
lradius 45.5656
lwrist 19.6387
lhand -48.8471 122.18
lfingers 7.12502
lthumb -21.4821 -266.649
rfemur -45.7504 -24.2452 1.58059
rtibia 57.1731
rfoot -23.0719 -28.3017
rtoes 10.4624
lfemur -63.8393 24.3725 26.4238
ltibia 33.9827
lfoot -22.2873 25.9568
ltoes -12.9236
186
root 1.81996 17.4544 -2.84189 133.523 79.6253 -397.937
lowerback 4.95851 3.21906 3.31488
upperback -8.06248 5.38989 3.83986
thorax -11.5522 2.65123 1.47244
lowerneck -41.773 -13.4556 -30.1101
upperneck -1.47035 -3.50895 19.9134
head 5.72474 0.84527 11.4134
rclavicle -1.11319e-013 -4.13472e-014
rhumerus 78.3782 -32.3676 3.18381
rradius 26.9107
rwrist 22.5079
rhand -32.4178 97.0956
rfingers 7.12502
rthumb -5.65211 127
lclavicle -1.11319e-013 -4.13472e-014
lhumerus 50.8147 30.1089 22.93
lradius 44.8065
lwrist 19.0401
lhand -48.6366 122.657
lfingers 7.12502
lthumb -21.28 -266.195
rfemur -43.9434 -24.3 2.69878
rtibia 55.2712
rfoot -23.2051 -28.3889
rtoes 11.114
lfemur -64.3474 25.9324 28.097
ltibia 32.715
lfoot -22.1794 26.534
ltoes -14.2705
187
root 1.82482 17.4971 -3.00366 129.834 78.667 -401.405
lowerback 5.40569 3.29386 2.65662
upperback -7.95102 5.41041 3.63487
thorax -11.7323 2.69823 1.58654
lowerneck -41.9149 -13.1251 -29.5522
upperneck -1.15423 -3.34029 19.6337
head 5.80127 0.873422 11.2494
rclavicle -5.24792e-014 -4.13472e-014
rhumerus 78.5565 -32.886 3.37012
rradius 26.584
rwrist 23.0115
rhand -32.5613 96.6257
rfingers 7.12502
rthumb -5.79065 126.527
lclavicle -5.24792e-014 -4.13472e-014
lhumerus 51.5848 30.4166 23.9518
lradius 44.6555
lwrist 18.9555
lhand -48.7397 123.524
lfingers 7.12502
lthumb -21.379 -265.317
rfemur -42.0375 -24.367 3.53286
rtibia 53.2556
rfoot -22.8392 -28.9984
rtoes 10.2148
lfemur -64.4153 27.2928 29.9286
ltibia 31.3606
lfoot -21.4685 28.3396
ltoes -13.6945
188
root 1.82816 17.5396 -3.16802 125.937 77.3694 -405.128
lowerback 5.88385 3.37008 1.63518
upperback -7.89775 5.37848 3.36375
thorax -12.0255 2.74682 1.8355
lowerneck -41.7137 -12.9349 -29.313
upperneck -1.08716 -3.34056 19.6947
head 5.81954 0.849366 11.2366
rclavicle 2.95792e-013 1.59028e-015
rhumerus 78.4525 -33.2702 4.08788
rradius 26.3814
rwrist 22.6612
rhand -32.9502 96.2126
rfingers 7.12502
rthumb -6.16611 126.103
lclavicle 2.95792e-013 1.59028e-015
lhumerus 52.2747 30.6127 24.9919
lradius 44.3328
lwrist 18.5894
lhand -48.8959 124.092
lfingers 7.12502
lthumb -21.529 -264.732
rfemur -40.1442 -24.6002 3.91979
rtibia 51.0811
rfoot -22.1526 -29.5239
rtoes 9.17875
lfemur -64.1192 28.4158 31.6605
ltibia 29.7962
lfoot -19.1608 31.7751
ltoes -3.52863
189
root 1.83836 17.5638 -3.33016 122.621 76.298 -408.248
lowerback 6.30784 3.4928 0.957886
upperback -7.88124 5.4608 3.20846
thorax -12.3178 2.8319 2.00234
lowerneck -41.2198 -12.6771 -29.4014
upperneck -0.962681 -3.19339 19.8265
head 5.80083 0.884045 11.3161
rclavicle -4.92986e-014 -4.92986e-014
rhumerus 78.1731 -33.4175 5.45617
rradius 26.1713
rwrist 21.7158
rhand -33.25 95.8019
rfingers 7.12502
rthumb -6.45556 125.684
lclavicle -4.92986e-014 -4.92986e-014
lhumerus 52.6769 30.6717 26.12
lradius 44.1058
lwrist 18.0587
lhand -49.3134 124.093
lfingers 7.12502
lthumb -21.93 -264.684
rfemur -38.0052 -23.6986 4.30768
rtibia 48.7388
rfoot -22.3033 -30.2462
rtoes 9.30879
lfemur -63.1585 29.6159 33.7733
ltibia 27.6509
lfoot -17.3774 34.2942
ltoes -1.60726
190
root 1.83822 17.5881 -3.49215 120.159 75.4808 -410.379
lowerback 6.74587 3.58641 0.657685
upperback -7.86329 5.56357 3.19761
thorax -12.6016 2.90293 2.11137
lowerneck -40.3659 -12.5331 -30.0359
upperneck -1.00967 -3.0184 19.9734
head 5.6772 0.927713 11.4711
rclavicle -1.06549e-013 -3.81667e-014
rhumerus 78.1349 -33.4287 6.72496
rradius 26.0639
rwrist 21.1368
rhand -33.2252 95.4724
rfingers 7.12502
rthumb -6.43164 125.355
lclavicle -1.06549e-013 -3.81667e-014
lhumerus 52.7121 30.6377 27.1299
lradius 44.0981
lwrist 17.4926
lhand -49.5026 121.189
lfingers 7.12502
lthumb -22.1116 -267.567
rfemur -35.5889 -22.705 4.86537
rtibia 46.246
rfoot -22.8852 -30.4723
rtoes 10.623
lfemur -61.4904 30.655 36.5867
ltibia 25.0868
lfoot -18.8167 35.0378
ltoes -7.58926
191
root 1.82996 17.6147 -3.65635 118.425 74.3735 -411.802
lowerback 7.13385 3.55133 0.241203
upperback -7.83211 5.42848 2.96766
thorax -12.8127 2.85212 2.09389
lowerneck -39.6197 -12.5021 -30.3515
upperneck -1.35493 -3.08659 20.019
head 5.51383 0.869121 11.4994
rclavicle -4.77083e-015 2.70347e-014
rhumerus 78.115 -33.5922 7.20013
rradius 26.1605
rwrist 21.0733
rhand -33.4288 94.6567
rfingers 7.12502
rthumb -6.62813 124.533
lclavicle -4.77083e-015 2.70347e-014
lhumerus 52.8266 30.6395 27.5587
lradius 43.9215
lwrist 17.0969
lhand -49.29 117.996
lfingers 7.12502
lthumb -21.9075 -89.2163
rfemur -33.0174 -21.2376 4.92149
rtibia 43.6826
rfoot -23.7304 -30.9836
rtoes 12.7328
lfemur -59.2112 31.1197 39.6791
ltibia 21.9105
lfoot -18.853 37.4564
ltoes 0.619441
192
root 1.83431 17.6199 -3.81025 117.064 73.268 -413
lowerback 7.2893 3.51146 -0.175542
upperback -7.8115 5.26275 2.61755
thorax -12.8761 2.78159 1.96635
lowerneck -39.733 -11.7189 -28.9042
upperneck -0.852651 -2.79394 19.6901
head 5.6404 0.93477 11.2083
rclavicle -9.93923e-014 3.49861e-014
rhumerus 77.9674 -33.8856 7.05441
rradius 26.3158
rwrist 21.2566
rhand -33.9873 93.1377
rfingers 7.12502
rthumb -7.16733 122.996
lclavicle -9.93923e-014 3.49861e-014
lhumerus 53.1741 30.6038 27.7068
lradius 43.5974
lwrist 16.8772
lhand -49.2065 118.846
lfingers 7.12502
lthumb -21.8274 90.0567
rfemur -30.6244 -19.2121 5.10327
rtibia 41.0718
rfoot -23.3118 -32.6605
rtoes 12.3506
lfemur -56.8258 31.5973 42.6205
ltibia 18.186
lfoot -18.0611 39.4272
ltoes -1.68438
